<?xml version="1.0" encoding="iso-8859-1"?>
<!-- Generator: Adobe Illustrator 19.0.0, SVG Export Plug-In . SVG Version: 6.00 Build 0)  -->
<svg version="1.1" id="Capa_1" xmlns="http://www.w3.org/2000/svg" xmlns:xlink="http://www.w3.org/1999/xlink" x="0px" y="0px"
	 viewBox="0 0 512 512" style="enable-background:new 0 0 512 512;" xml:space="preserve">
<path style="fill:#B58657;" d="M358.639,135.64l-2.453,2.443l-115.55,115.55l-23.244,23.244L85.055,409.214
	c-10.167,10.167-26.65,10.167-36.827-0.01l-23.589-23.589c-10.167-10.167-10.167-26.66,0-36.827L295.77,77.657l2.443-2.443
	c10.167-10.167,26.66-10.157,36.827,0.01l23.589,23.589C368.806,108.98,368.806,125.472,358.639,135.64z"/>
<g>
	<path style="fill:#C69A6A;" d="M217.392,276.877L85.055,409.214c-10.167,10.167-26.65,10.167-36.827-0.01L33.59,394.566
		l14.344-14.344l115.55-115.55l2.453-2.443c10.167-10.167,26.66-10.157,36.827,0.01L217.392,276.877z"/>
	<path style="fill:#C69A6A;" d="M401.208,206.068c-30.859,30.859-61.718,61.718-92.577,92.577
		c-73.884-39.119-134.306-99.541-173.425-173.425c30.859-30.859,61.718-61.718,92.577-92.577
		C301.667,71.762,362.089,132.184,401.208,206.068z"/>
	<path style="fill:#C69A6A;" d="M421.979,207.634l-0.841-0.84c-5.704-5.704-14.952-5.704-20.656,0l-91.126,91.126
		c-5.704,5.704-5.704,14.952,0,20.656l0.84,0.84c5.704,5.704,14.952,5.704,20.656,0l91.126-91.126
		C427.683,222.587,427.683,213.338,421.979,207.634z"/>
	<path style="fill:#C69A6A;" d="M227.057,12.712l-0.84-0.84c-5.704-5.704-14.952-5.704-20.656,0l-91.126,91.126
		c-5.704,5.704-5.704,14.952,0,20.656l0.84,0.84c5.704,5.704,14.952,5.704,20.656,0l91.126-91.126
		C232.761,27.664,232.761,18.416,227.057,12.712z"/>
</g>
<g>
	<path style="fill:#B58657;" d="M332.223,275.04l-23.597,23.597c-73.88-39.115-134.305-99.54-173.419-173.419l23.597-23.597
		C206.779,166.64,267.204,227.065,332.223,275.04z"/>
	<path style="fill:#B58657;" d="M362.378,287.877l-31.532,31.532c-5.698,5.698-14.952,5.706-20.651,0.007l-0.845-0.845
		c-5.706-5.706-5.699-14.959,0-20.658l31.532-31.532c-5.706,5.706-5.706,14.952,0,20.658l0.845,0.845
		C347.427,293.583,356.673,293.583,362.378,287.877z"/>
	<path style="fill:#B58657;" d="M167.463,92.962l-31.532,31.532c-5.698,5.698-14.959,5.698-20.658,0l-0.845-0.845
		c-5.699-5.699-5.699-14.959,0-20.658l31.532-31.532c-5.706,5.706-5.698,14.959,0,20.658l0.845,0.845
		C152.504,98.66,161.757,98.667,167.463,92.962z"/>
</g>
<path style="fill:#C69A6A;" d="M481.61,452.181H168.166c-7.389,0-13.379,5.99-13.379,13.379v25.46
	c0,7.389,5.99,13.379,13.379,13.379H481.61c7.389,0,13.379-5.99,13.379-13.379v-25.46
	C494.987,458.171,488.997,452.181,481.61,452.181z"/>
<path style="fill:#B58657;" d="M247.881,491.02v-25.46c0-7.389,5.99-13.379,13.379-13.379h-93.093
	c-7.389,0-13.379,5.99-13.379,13.379v25.46c0,7.389,5.99,13.379,13.379,13.379h93.093
	C253.87,504.398,247.881,498.408,247.881,491.02z"/>
<path style="fill:#EDBB4C;" d="M474.412,436.431v15.753H175.354v-15.753c0-12.276,9.954-22.23,22.23-22.23h254.608
	C464.468,414.201,474.412,424.156,474.412,436.431z"/>
<path style="fill:#FFD15C;" d="M474.412,436.431v15.753H233.134v-15.753c0-12.276,9.954-22.23,22.23-22.23h196.828
	C464.468,414.201,474.412,424.156,474.412,436.431z"/>
<path d="M298.449,301.777c-2.299,7.594-0.46,16.183,5.531,22.173l0.84,0.84c4.195,4.195,9.772,6.505,15.704,6.505
	c5.933,0,11.509-2.31,15.704-6.505l91.126-91.126c4.195-4.195,6.505-9.772,6.505-15.704s-2.31-11.509-6.505-15.704l-0.84-0.84
	c-4.195-4.195-9.772-6.505-15.704-6.505c-2.228,0-4.405,0.326-6.479,0.956c-11.183-20.255-23.912-39.42-38.035-57.386
	c10.778-13.2,10.013-32.743-2.294-45.05l-23.588-23.588c-6.353-6.354-14.801-9.853-23.787-9.856c-0.003,0-0.006,0-0.009,0
	c-7.841,0-15.269,2.664-21.254,7.562c-17.969-14.126-37.141-26.857-57.4-38.042c2.3-7.594,0.46-16.183-5.532-22.173c0,0,0,0,0-0.001
	l-0.84-0.839c-8.659-8.66-22.748-8.659-31.407,0L109.058,97.62c-8.659,8.659-8.659,22.748,0.001,31.41l0.839,0.838
	c4.329,4.329,10.016,6.495,15.704,6.495c2.182,0,4.364-0.325,6.469-0.963c11.157,20.209,23.852,39.334,37.936,57.265l-60.269,60.269
	c-2.969,2.969-2.969,7.782,0,10.751c1.484,1.485,3.43,2.227,5.376,2.227c1.945,0,3.892-0.742,5.376-2.227l59.174-59.174
	c15.152,17.916,31.755,34.519,49.671,49.671L79.68,403.838c-3.481,3.481-8.108,5.398-13.031,5.398h-0.002
	c-4.926-0.001-9.557-1.921-13.042-5.405l-23.588-23.588c-3.483-3.482-5.401-8.114-5.403-13.04
	c-0.001-4.926,1.915-9.555,5.395-13.036l70.207-70.207c2.969-2.969,2.969-7.782,0-10.751c-2.969-2.969-7.783-2.969-10.751,0
	l-70.207,70.207c-6.354,6.354-9.851,14.803-9.849,23.792c0.002,8.986,3.503,17.434,9.856,23.787l23.588,23.588
	c6.356,6.357,14.805,9.857,23.791,9.859c0.002,0,0.003,0,0.005,0c8.984,0,17.43-3.498,23.783-9.852l150.75-150.75
	C259.113,277.924,278.239,290.62,298.449,301.777z M415.762,212.169l0.84,0.84l0,0c1.323,1.323,2.052,3.082,2.052,4.952
	c0,1.87-0.729,3.629-2.052,4.952l-91.126,91.126c-1.323,1.323-3.082,2.052-4.953,2.052c-1.87,0-3.629-0.729-4.952-2.052l-0.84-0.84
	c-2.73-2.73-2.731-7.171-0.002-9.902l91.131-91.131c1.323-1.321,3.081-2.049,4.95-2.049
	C412.681,210.118,414.44,210.846,415.762,212.169z M316.619,75.194c0.001,0,0.004,0,0.005,0c4.927,0.001,9.557,1.92,13.04,5.402
	l23.588,23.588c5.966,5.967,6.968,15.027,3.038,22.048c-14.877-17.532-31.148-33.801-48.68-48.678
	C310.331,76.022,313.408,75.194,316.619,75.194z M120.649,119.116l-0.839-0.838c-2.731-2.731-2.731-7.174,0-9.905l91.127-91.126
	c1.365-1.365,3.159-2.048,4.952-2.048c1.794,0,3.587,0.683,4.953,2.049l0.84,0.839c2.731,2.731,2.731,7.174,0,9.905l-91.127,91.126
	C127.825,121.849,123.381,121.849,120.649,119.116z M144.58,126.597l84.58-84.58c68.912,37.686,124.987,93.761,162.674,162.674
	l-84.58,84.58C238.34,251.583,182.266,195.509,144.58,126.597z"/>
<path d="M482.02,444.599v-8.169c0-16.447-13.381-29.828-29.828-29.828h-55.288c-4.199,0-7.603,3.404-7.603,7.603
	s3.404,7.603,7.603,7.603h55.288c8.063,0,14.622,6.56,14.622,14.622v8.148H182.961v-8.148c0-8.063,6.56-14.622,14.622-14.622h173.98
	c4.199,0,7.603-3.404,7.603-7.603s-3.404-7.603-7.603-7.603h-173.98c-16.447,0-29.828,13.381-29.828,29.828v8.169
	c-11.378,0.222-20.57,9.53-20.57,20.96v25.46c0,11.569,9.412,20.981,20.981,20.981H481.61c11.569,0,20.981-9.412,20.981-20.981
	v-25.46C502.59,454.129,493.398,444.821,482.02,444.599z M487.385,491.02c0,3.185-2.591,5.776-5.776,5.776H168.166
	c-3.185,0-5.776-2.591-5.776-5.776v-25.46c0-3.185,2.591-5.776,5.776-5.776h7.192h299.06h7.192c3.185,0,5.776,2.591,5.776,5.776
	v25.46H487.385z"/>
<path d="M415.001,342.427c1.381,2.527,3.988,3.958,6.678,3.958c1.232,0,2.482-0.3,3.638-0.933l51.162-27.954
	c3.685-2.013,5.04-6.633,3.026-10.317c-2.012-3.685-6.632-5.04-10.317-3.026l-51.162,27.954
	C414.343,334.123,412.988,338.742,415.001,342.427z"/>
<path d="M426.204,369.729c-4.168-0.461-7.932,2.543-8.395,6.717c-0.464,4.173,2.543,7.932,6.717,8.395l42.723,4.747
	c0.285,0.031,0.569,0.048,0.848,0.048c3.823,0,7.115-2.876,7.547-6.764c0.464-4.173-2.543-7.932-6.717-8.395L426.204,369.729z"/>
<path d="M431.918,270.262c-3.18-2.744-7.979-2.393-10.724,0.785l-30.064,34.811c-2.745,3.178-2.393,7.979,0.785,10.723
	c1.437,1.241,3.205,1.849,4.966,1.849c2.133,0,4.253-0.893,5.758-2.634l30.064-34.811
	C435.446,277.807,435.094,273.007,431.918,270.262z"/>
<g>
</g>
<g>
</g>
<g>
</g>
<g>
</g>
<g>
</g>
<g>
</g>
<g>
</g>
<g>
</g>
<g>
</g>
<g>
</g>
<g>
</g>
<g>
</g>
<g>
</g>
<g>
</g>
<g>
</g>
</svg>
