<svg id="Layer_1" height="512" viewBox="0 0 512 512" width="512" xmlns="http://www.w3.org/2000/svg" data-name="Layer 1"><path d="m430.25 410.7v84.11h-46.94v-71.73a89.993 89.993 0 0 1 21.81-58.73l.12-.18a55.738 55.738 0 0 1 25.01 46.53z" fill="#e75163"/><path d="m215 317.96v57.77l8.98 24.08.045-.03.023.03a82.533 82.533 0 0 0 63.971.055l.181.135h.01l8.79-24.27v-60.15z" fill="#efc597"/><path d="m128.31 424.25v70.56h-46.56v-84.11a55.67 55.67 0 0 1 24.11-45.91 89.961 89.961 0 0 1 22.45 59.46z" fill="#e75163"/><path d="m237.9 159.59-.02.01a91.542 91.542 0 0 0 -37.48 14.68 50.8 50.8 0 0 0 -16.68 18.55 52.023 52.023 0 0 0 -5.99 24.25h-3.82a14.134 14.134 0 0 0 -6.93 1.8l-.01-.01a67.6 67.6 0 0 1 -5.86-27.56v-13.28a98.635 98.635 0 1 1 197.27 0v6.52l-.14.54-2.06-.54-14.49 55.44q-5.685-2.355-11.03-4.82c-49.9-22.95-77.56-52.12-92.76-75.58z" fill="#6d7486"/><path d="m330.66 235.17-.11.24v17.19a76.41 76.41 0 1 1 -152.82 0v-6.87h-3.82a13.863 13.863 0 0 1 -2.15-.16l-6.7-25.65.44-.11a12.658 12.658 0 0 1 1.48-.93 14.134 14.134 0 0 1 6.93-1.8h3.82a52.023 52.023 0 0 1 5.99-24.25 50.8 50.8 0 0 1 16.68-18.55 91.542 91.542 0 0 1 37.48-14.68l.02-.01c15.2 23.46 42.86 52.63 92.76 75.58z" fill="#ffd8b7"/><path d="m307.5 80.35a48.439 48.439 0 0 1 -.97 9.62l-.49.94a98.789 98.789 0 0 0 -92.8.11l-.09-.16a47.76 47.76 0 1 1 94.35-10.51z" fill="#4a5160"/><path d="m374.49 355h-77.49v1l-29 139h115v-71.92a90.135 90.135 0 0 1 21.965-58.73l.2-.15a55.257 55.257 0 0 0 -30.675-9.2z" fill="#fb6771"/><path d="m288.2 399.83-19.93 94.98h-24.66l-19.86-95 .16-.03.08.03a82.6 82.6 0 0 0 64-.03z" fill="#d4e1f4"/><path d="m243.61 495-28.61-139.27v-.73h-77.49a55.952 55.952 0 0 0 -31.8 9.82 89.747 89.747 0 0 1 22.29 59.43v70.75z" fill="#fb6771"/><path d="m230.11 306.63a76.2 76.2 0 0 1 -22.38-54.03v-35.52a52.023 52.023 0 0 1 5.99-24.25 50.8 50.8 0 0 1 16.68-18.55 96.047 96.047 0 0 1 12.688-7.167q-2.805-3.84-5.188-7.523l-.02.01a91.542 91.542 0 0 0 -37.48 14.68 50.8 50.8 0 0 0 -16.68 18.55 52.023 52.023 0 0 0 -5.99 24.25v35.52a76.454 76.454 0 0 0 91.424 74.93 76.207 76.207 0 0 1 -39.044-20.9z" fill="#e8bfa0"/><path d="m285.848 163.319a5.984 5.984 0 0 1 -4.585-2.126c-19.573-23.153-27.216-44.011-27.532-44.888a6 6 0 0 1 11.288-4.075c.07.2 7.315 19.813 25.408 41.216a6 6 0 0 1 -4.579 9.873z" fill="#4a5160"/><path d="m332.1 353.429h-41.517v-12h41.517a14.138 14.138 0 0 0 14.122-14.122v-24.348h12v24.348a26.153 26.153 0 0 1 -26.122 26.122z" fill="#d4e1f4"/><path d="m391.565 212.621h-12v-65.871a123.565 123.565 0 0 0 -247.13 0v55.871h-12v-55.871c0-74.75 60.814-135.564 135.565-135.564s135.565 60.814 135.565 135.564z" fill="#d4e1f4"/><path d="m157.667 403.058a6 6 0 0 1 -6-6v-6.3a6 6 0 0 1 12 0v6.3a6 6 0 0 1 -6 6z" fill="#f4f8fc"/><path d="m157.667 468.058a6 6 0 0 1 -6-6v-46a6 6 0 0 1 12 0v46a6 6 0 0 1 -6 6z" fill="#f4f8fc"/><rect fill="#6d7486" height="27.43" rx="2.68" width="45.13" x="247.32" y="333.81"/><path d="m352.22 303.78c-.28-.06-.56-.13-.84-.2l-2.28-.6 29.42-112.59 2.28.59a29.859 29.859 0 0 1 21.34 36.45l-14.31 54.8a29.865 29.865 0 0 1 -35.61 21.55z" fill="#5fa8ed"/><path d="m358.24 185.09 20.28 5.3-29.42 112.59-22.34-5.83 14.93-57.16 14.49-55.44z" fill="#4689d3"/><path d="m178.69 272.08 6.55 25.07-22.34 5.83-29.42-112.59 22.34-5.84 9.24 35.37 6.7 25.65z" fill="#4689d3"/><path d="m133.48 190.39 29.42 112.59-2.28.6a29.871 29.871 0 0 1 -36.45-21.35l-14.31-54.8a29.859 29.859 0 0 1 21.34-36.45z" fill="#5fa8ed"/></svg>