<svg enable-background="new 0 0 256 256" height="512" viewBox="0 0 256 256" width="512" xmlns="http://www.w3.org/2000/svg"><circle cx="183.803" cy="14.617" fill="#c5e3ff" r="12.116"/><circle cx="32.03" cy="14.617" fill="#c5e3ff" r="12.116"/><g fill="#edf4fc"><path d="m158.86 62.265 24.509-35.55c-2.232-.078-4.469-.762-6.443-2.124-1.975-1.362-3.41-3.209-4.276-5.267l-25.47 36.943c4.021 1.738 7.921 3.745 11.68 5.998z"/><path d="m177.67 217.418c-3.082 3.063-6.397 5.921-9.9 8.579l17.013 24.677c2.041 2.96 6.095 3.705 9.055 1.664s3.705-6.095 1.664-9.055z"/><path d="m50.767 227.949c-.196-.138-.391-.277-.585-.417-1.288-.924-2.554-1.878-3.799-2.864-.147-.116-.295-.23-.441-.347-1.816-1.456-3.589-2.968-5.305-4.554l-16.22 23.526c-2.041 2.96-1.295 7.015 1.664 9.055 2.96 2.041 7.014 1.295 9.055-1.665l15.66-22.714c-.01-.006-.019-.013-.029-.02z"/><path d="m62.989 58.936c.456-.232.916-.457 1.377-.683 1.062-.519 2.135-1.021 3.222-1.505.356-.159.708-.324 1.067-.479l-25.472-36.944c-.866 2.058-2.301 3.905-4.276 5.267s-4.212 2.046-6.444 2.124l24.497 35.53c1.956-1.171 3.973-2.266 6.029-3.31z"/></g><circle cx="107.916" cy="147.137" fill="#fc3850" r="98.999"/><path d="m204.128 170.501c.025-.164.052-.323.087-.467l-132.802-114.905c-.057.022-.131.044-.197.066-37.196 14.816-60.773 50.023-62.249 88.137.008.012.016.025.025.037l116.885 101.134c.005-.001.01 0 .015-.001 4.842-.9 9.677-2.171 14.471-3.835 32.992-11.445 56.065-38.588 63.765-70.166z" fill="#f9677f"/><path d="m107.835 248.688c-15.132 0-30.185-3.426-44.202-10.222-24.395-11.829-42.723-32.449-51.609-58.063s-7.265-53.155 4.563-77.549c11.829-24.396 32.449-42.724 58.063-51.609 52.875-18.342 110.816 9.751 129.159 62.626 18.343 52.875-9.751 110.815-62.626 129.158-10.897 3.78-22.144 5.659-33.348 5.659zm-.003-198.057c-10.47 0-21.108 1.717-31.543 5.337-50.271 17.439-76.98 72.525-59.541 122.796 8.448 24.352 25.874 43.957 49.067 55.203 23.194 11.246 49.378 12.787 73.729 4.338 50.271-17.439 76.98-72.525 59.541-122.796-13.819-39.835-51.283-64.878-91.253-64.878z"/><path d="m90.247 73.925c-.595 0-1.177-.213-1.636-.609l-16.852-14.582c-.856-.74-1.107-1.963-.614-2.981l1.457-3.005c.287-.592.796-1.047 1.416-1.266l.221-.083c.137-.053.273-.106.414-.154 8.567-2.972 17.524-4.785 26.617-5.386.879-.053 1.741.36 2.239 1.098.497.739.564 1.686.176 2.487l-11.188 23.072c-.339.699-.984 1.201-1.746 1.358-.168.034-.336.051-.504.051zm-13.766-17.717 12.938 11.194 7.841-16.171c-7.025.782-13.935 2.327-20.601 4.609z"/><path d="m124.114 103.228c-.595 0-1.177-.213-1.636-.609l-16.853-14.581c-.856-.74-1.107-1.963-.614-2.981l17.711-36.527c.487-1.005 1.58-1.564 2.683-1.372 7.353 1.293 14.58 3.405 21.481 6.278.635.265 1.133.779 1.376 1.422.244.643.212 1.358-.088 1.977l-21.812 44.984c-.339.699-.984 1.201-1.746 1.358-.165.033-.334.051-.502.051zm-13.766-17.717 12.938 11.194 19.22-39.638c-5.226-2.009-10.628-3.565-16.116-4.642z"/><path d="m59.697 236.08c-.422 0-.841-.107-1.217-.316-6.53-3.64-12.665-8.007-18.232-12.979-.833-.744-1.072-1.95-.584-2.956l16.76-34.565c.339-.699.984-1.201 1.746-1.358.76-.156 1.552.049 2.14.558l16.853 14.582c.856.74 1.107 1.963.614 2.981l-15.83 32.643c-.3.619-.842 1.087-1.498 1.293-.245.079-.499.117-.752.117zm-14.703-15.785c4.243 3.642 8.811 6.92 13.625 9.779l13.82-28.502-12.939-11.195z"/><path d="m26.34 205.724c-.819 0-1.592-.403-2.061-1.085-5.159-7.513-9.282-15.667-12.255-24.236-.048-.139-.091-.278-.134-.417l-.072-.228c-.211-.622-.168-1.302.118-1.893l10.62-21.903c.339-.699.984-1.201 1.746-1.358.76-.156 1.552.049 2.14.558l16.853 14.582c.856.74 1.107 1.963.614 2.981l-15.318 31.59c-.389.801-1.174 1.335-2.062 1.402-.064.005-.127.007-.189.007zm-9.463-26.59c2.336 6.647 5.402 13.029 9.139 19.029l12.556-25.894-12.938-11.194z"/><path d="m101.769 248.462c-.052 0-.104-.001-.157-.005-7.574-.475-15.167-1.833-22.571-4.036-.703-.209-1.279-.717-1.574-1.388-.296-.671-.282-1.438.038-2.099l12.785-26.367c.339-.699.984-1.201 1.746-1.358.761-.156 1.551.049 2.14.558l16.853 14.582c.856.74 1.107 1.963.614 2.981l-7.624 15.723c-.421.865-1.297 1.409-2.25 1.409zm-18.462-8.034c5.589 1.483 11.272 2.462 16.951 2.919l6.048-12.473-12.938-11.194z"/><path d="m191.848 161.834c-.595 0-1.177-.213-1.636-.609l-16.853-14.582c-.856-.74-1.107-1.963-.614-2.981l20.872-43.046c.413-.852 1.272-1.397 2.219-1.409.962.007 1.819.513 2.253 1.355 2.24 4.351 4.165 8.829 5.719 13.309 1.856 5.349 3.282 10.978 4.238 16.731.085.511.009 1.035-.217 1.501l-13.733 28.322c-.339.699-.984 1.201-1.746 1.358-.165.034-.334.051-.502.051zm-13.766-17.717 12.938 11.194 11.962-24.67c-.907-5.204-2.217-10.291-3.896-15.132-.937-2.699-2.014-5.397-3.221-8.066z"/><path d="m157.98 132.531c-.595 0-1.177-.213-1.636-.609l-16.852-14.582c-.856-.74-1.107-1.963-.614-2.981l23.85-49.188c.32-.66.914-1.146 1.624-1.33.711-.184 1.466-.046 2.065.376 6.314 4.447 12.083 9.568 17.147 15.222.677.756.83 1.846.387 2.759l-23.722 48.923c-.339.699-.984 1.201-1.746 1.358-.166.035-.335.052-.503.052zm-13.765-17.717 12.938 11.194 21.562-44.468c-3.877-4.175-8.166-8.031-12.79-11.5z"/><path d="m196.311 194.16c-.595 0-1.177-.213-1.636-.609l-145.177-125.613c-.583-.504-.9-1.25-.861-2.019s.432-1.478 1.063-1.92c6.472-4.528 13.467-8.294 20.792-11.194.869-.342 1.853-.175 2.556.434l132.802 114.904c.706.611 1.013 1.563.796 2.471-1.833 7.675-4.559 15.134-8.102 22.17-.347.688-.991 1.178-1.747 1.328-.162.033-.324.048-.486.048zm-141.073-127.868 140.241 121.342c2.482-5.37 4.475-10.973 5.941-16.712l-130.485-112.901c-5.466 2.264-10.728 5.038-15.697 8.271z"/><path d="m125.877 247.003c-.596 0-1.178-.213-1.636-.609l-116.885-101.134c-.574-.497-.892-1.228-.862-1.986.332-8.64 1.771-17.214 4.277-25.485.246-.81.884-1.441 1.698-1.676.812-.236 1.691-.042 2.331.511l136.717 118.293c.641.555.957 1.396.84 2.235s-.651 1.562-1.419 1.921c-3.18 1.483-6.462 2.815-9.754 3.957-4.833 1.677-9.829 3-14.849 3.933-.153.027-.306.04-.458.04zm-114.334-104.732 115.053 99.548c4.378-.87 8.728-2.05 12.948-3.514 1.916-.665 3.829-1.396 5.718-2.188l-130.758-113.137c-1.636 6.31-2.629 12.777-2.961 19.291z"/><path d="m125.877 247.003c-.595 0-1.177-.213-1.636-.609l-116.885-101.134c-.165-.142-.31-.305-.432-.485-.015-.022-.042-.062-.056-.085-.272-.428-.419-.948-.399-1.455 1.551-40.069 26.603-75.538 63.823-90.362.037-.015.075-.029.113-.042.016-.005.106-.035.122-.04.864-.344 1.817-.162 2.522.448l132.801 114.904c.707.612 1.014 1.567.795 2.476-.02.082-.033.173-.047.266-.011.07-.024.14-.042.209-8.215 33.693-32.654 60.585-65.374 71.936-4.834 1.678-9.825 3-14.834 3.931-.071.013-.146.023-.22.031-.083.007-.167.011-.251.011zm-114.359-104.753 115.079 99.571c4.416-.881 8.743-2.057 12.947-3.516 30.773-10.676 53.843-35.812 61.897-67.365l-130.518-112.929c-34.312 14.176-57.511 47.035-59.405 84.239zm192.609 28.251h.01z"/><path d="m169.095 227.468c-.584 0-1.167-.204-1.636-.609l-146.976-127.171c-.905-.783-1.128-2.098-.532-3.136 3.729-6.49 8.113-12.514 13.033-17.905.914-1 2.458-1.093 3.482-.206l149.689 129.517c1.023.886 1.156 2.424.3 3.473-4.653 5.694-9.975 10.91-15.816 15.501-.453.359-.999.536-1.544.536zm-143.765-130.198 143.825 124.443c4.294-3.525 8.273-7.409 11.868-11.584l-145.962-126.292c-3.584 4.14-6.846 8.643-9.731 13.433z"/><path d="m183.772 29.237c-2.935 0-5.797-.885-8.265-2.587-6.635-4.574-8.311-13.694-3.737-20.329 4.575-6.635 13.695-8.312 20.329-3.737 3.214 2.216 5.373 5.551 6.079 9.391s-.126 7.725-2.342 10.938c-2.216 3.214-5.551 5.373-9.39 6.079-.892.164-1.786.245-2.674.245zm.045-24.233c-3.058 0-6.067 1.452-7.931 4.154-3.009 4.366-1.906 10.366 2.458 13.375 2.115 1.458 4.671 2.005 7.197 1.541s4.72-1.885 6.178-3.999c1.458-2.115 2.005-4.67 1.541-7.197-.464-2.526-1.885-4.72-4-6.178-1.661-1.146-3.562-1.696-5.443-1.696z"/><path d="m32.051 29.228c-4.648 0-9.222-2.207-12.054-6.315-2.216-3.214-3.048-7.099-2.342-10.938s2.864-7.175 6.079-9.391c6.636-4.574 15.755-2.898 20.329 3.737s2.898 15.755-3.737 20.329c-2.527 1.742-5.416 2.578-8.275 2.578zm-.035-24.224c-1.882 0-3.781.55-5.444 1.696-2.114 1.458-3.535 3.652-3.999 6.179-.464 2.526.083 5.082 1.541 7.196 3.01 4.366 9.009 5.468 13.375 2.458 4.365-3.009 5.468-9.009 2.458-13.375-1.864-2.701-4.874-4.154-7.931-4.154z"/><path d="m158.858 64.766c-.438 0-.882-.116-1.284-.356-3.672-2.202-7.503-4.169-11.386-5.848-.687-.297-1.204-.886-1.411-1.605s-.08-1.493.345-2.109l25.47-36.941c.518-.752 1.406-1.164 2.314-1.068.908.094 1.693.675 2.048 1.517.714 1.696 1.886 3.141 3.391 4.178 1.504 1.037 3.272 1.619 5.111 1.683.913.032 1.736.559 2.146 1.375s.343 1.791-.175 2.542l-24.51 35.55c-.482.701-1.262 1.082-2.059 1.082zm-7.919-9.547c2.43 1.139 4.831 2.383 7.179 3.718l21.011-30.475c-1.28-.43-2.499-1.038-3.622-1.812-1.124-.774-2.125-1.697-2.982-2.74z"/><path d="m190.162 255.991c-.547 0-1.099-.05-1.648-.151-2.367-.435-4.423-1.766-5.789-3.748l-17.013-24.677c-.759-1.1-.518-2.603.547-3.411 3.47-2.633 6.717-5.446 9.649-8.36.525-.522 1.254-.788 1.993-.716.737.068 1.407.46 1.827 1.07l17.833 25.865c1.366 1.981 1.879 4.376 1.444 6.743s-1.766 4.423-3.748 5.789c-1.522 1.05-3.287 1.596-5.095 1.596zm-18.994-29.469 15.672 22.732c.608.882 1.523 1.474 2.577 1.668 1.052.194 2.119-.035 3.001-.643s1.474-1.523 1.668-2.577c.193-1.053-.035-2.119-.643-3.001l-16.162-23.441c-1.934 1.807-3.979 3.567-6.113 5.262z"/><path d="m29.763 255.997c-1.763 0-3.543-.515-5.101-1.589-4.09-2.82-5.124-8.442-2.303-12.533l16.22-23.526c.412-.597 1.062-.986 1.783-1.066.717-.083 1.44.157 1.973.649 1.612 1.49 3.303 2.942 5.171 4.439l.435.342c1.205.955 2.451 1.894 3.698 2.787l.567.404c.024.017.071.051.091.066 1.074.805 1.32 2.314.558 3.419l-15.66 22.714c-1.747 2.533-4.567 3.894-7.432 3.894zm11.32-32.473-14.608 21.188c-1.255 1.821-.795 4.323 1.025 5.579 1.82 1.254 4.323.794 5.579-1.025l14.273-20.703c-.85-.631-1.693-1.278-2.521-1.934l-.45-.354c-1.14-.913-2.242-1.833-3.298-2.751z"/><path d="m56.961 64.747c-.797 0-1.577-.381-2.06-1.082l-24.496-35.531c-.519-.752-.585-1.727-.175-2.542.411-.816 1.234-1.343 2.146-1.375 1.839-.064 3.607-.646 5.111-1.683s2.677-2.482 3.391-4.179c.354-.842 1.14-1.423 2.048-1.517.91-.096 1.796.315 2.314 1.068l25.472 36.945c.425.616.551 1.391.345 2.11-.207.719-.726 1.308-1.413 1.604-.206.089-.408.181-.611.273l-.43.194c-1.06.472-2.106.962-3.142 1.467-.446.219-.896.439-1.341.665-2.172 1.104-4.095 2.159-5.878 3.226-.4.241-.843.357-1.281.357zm6.028-5.811h.01zm-26.285-30.474 21.001 30.46c1.297-.73 2.671-1.463 4.152-2.216.466-.237.938-.468 1.409-.699.542-.265 1.086-.525 1.634-.781l-21.593-31.316c-.857 1.043-1.858 1.966-2.981 2.74s-2.342 1.382-3.622 1.812z"/><path d="m160.946 123.698c-12.233 0-20.952-5.801-21.102-5.903-1.14-.78-1.431-2.336-.652-3.475.779-1.138 2.331-1.431 3.47-.655.923.625 22.876 15.058 45.289-7.354 22.926-22.926 43.399-26.383 60.854-10.272 1.015.937 1.078 2.518.141 3.533-.936 1.015-2.517 1.078-3.533.141-15.324-14.146-32.963-10.83-53.927 10.133-10.739 10.74-21.582 13.852-30.54 13.852z"/></svg>