<svg id="Layer_1" enable-background="new 0 0 512 512" height="512" viewBox="0 0 512 512" width="512" xmlns="http://www.w3.org/2000/svg"><g><path d="m413.601 454.568c53.434-44.943 87.402-112.285 87.402-187.571 0-135.311-109.691-245.002-245.002-245.002s-245.003 109.692-245.003 245.003c0 44.306 11.763 85.864 32.333 121.725z" fill="#73c3f9"/><path d="m115.096 467.44c39.856 28.068 88.452 44.56 140.904 44.56s101.048-16.492 140.904-44.561h-281.808z" fill="#2a428c"/><g><path d="m234.182 467.44h-119.086c33.43 23.544 73.012 38.936 115.858 43.289-19.567-7.425-17.977-38.482 3.228-43.289z" fill="#1c2e7a"/></g><path d="m344.694 308.523h-243.876c-8.279 0-15.053 6.774-15.053 15.053v10.858h273.981v-10.858c.001-8.279-6.773-15.053-15.052-15.053z" fill="#3c58a0"/><path d="m191.388 308.523h-90.569c-8.279 0-15.053 6.774-15.053 15.053v10.858h102.817c1.707-.695 2.805-.957 2.805-.957-15.25-11.838 0-24.954 0-24.954z" fill="#2a428c"/><path d="m194.685 80.049h129.622v149.41h-129.622z" fill="#ffb332" transform="matrix(.642 -.766 .766 .642 -25.803 254.208)"/><path d="m289.871 98.257c1 .352 2.016.225 2.866-.209l-48.858-40.955-83.27 99.338 47.437 39.764c.675-1.019.843-2.365.255-3.595-6.167-12.905 1.878-21.287 1.878-21.287s42.374-48.333 55.041-65.333c8.243-11.061 18.495-9.89 24.651-7.723z" fill="#ff9100"/><path d="m259.395 38.324c12.572 10.538 102.104 85.589 114.759 96.196 0 0-7.508-14.854 3.45-27.927-21.812-18.283-78.459-65.767-91.314-76.543-10.958 13.073-26.895 8.274-26.895 8.274z" fill="#3c58a0"/><path d="m311.433 78.787c-.432-10.137 6.576-13.243 10.863-14.195 1.205-.268 2.116-1.139 2.536-2.234-17.052-14.294-32.552-27.286-38.542-32.308-10.958 13.072-26.895 8.274-26.895 8.274 5.781 4.846 27.838 23.335 51.209 42.926.553-.67.869-1.535.829-2.463z" fill="#2a428c"/><path d="m145.12 174.65c12.572 10.538 102.104 85.589 114.759 96.197 0 0-15.937-4.799-26.895 8.274-21.812-18.284-78.459-65.768-91.314-76.543 10.958-13.073 3.45-27.928 3.45-27.928z" fill="#3c58a0"/><path d="m145.12 174.65s7.508 14.854-3.45 27.927c5.783 4.848 20.43 17.125 36.78 30.831.908-.765 1.429-1.946 1.266-3.204-1.258-9.7 6.091-12.292 10.778-12.966 1.3-.187 2.328-1.063 2.802-2.204-22.221-18.627-42.646-35.748-48.176-40.384z" fill="#2a428c"/><path d="m360.583 204.376-12.855-.83c-3.613 4.31-18.65 22.249-24.689 29.453l3.063 12.512c4.366 17.836 17.618 32.111 35.032 37.936 12.703 4.249 27.622 12.497 44.012 24.281.574-1.753 1.474-3.43 2.731-4.93l23.394-27.909c1.257-1.5 2.751-2.679 4.377-3.55-14.466-14.081-25.192-27.33-31.594-39.095-8.777-16.129-25.147-26.684-43.471-27.868z" fill="#3c58a0"/><path d="m379.343 258.315c-4.449-1.625-7.898-3.958-10.569-6.544-7.485-7.245-8.015-19.102-1.653-27.35l11.896-15.424c-5.738-2.591-11.959-4.201-18.434-4.62l-12.855-.83c-3.613 4.31-18.65 22.249-24.689 29.453l3.063 12.512c4.366 17.836 17.618 32.111 35.032 37.936 12.703 4.249 27.622 12.497 44.012 24.281.574-1.752 1.474-3.43 2.731-4.93l12.904-15.393c-9.064-8.075-28.253-24.275-41.438-29.091z" fill="#2a428c"/><path d="m495.038 320.907-40.359-33.831c-.57 1.814-1.494 3.548-2.791 5.096l-23.394 27.909c-1.297 1.548-2.844 2.76-4.53 3.638l54.614 45.781c7.105-15.403 12.659-31.665 16.46-48.593z" fill="#3c58a0"/><path d="m463.425 326.403c-6.153-5.158-7.109-14.31-2.071-20.561.059-.073.112-.138.158-.193l6.641-7.278-13.474-11.295c-.57 1.814-1.494 3.548-2.791 5.096l-23.394 27.909c-1.297 1.548-2.844 2.76-4.53 3.638l54.614 45.781c3.409-7.39 6.45-14.983 9.123-22.747z" fill="#2a428c"/><g><path d="m376.369 151.979c-4.582 5.466-12.726 6.182-18.191 1.601l-114.759-96.197c-5.466-4.582-6.182-12.726-1.601-18.191 4.582-5.466 12.726-6.182 18.191-1.601l114.759 96.197c5.466 4.581 6.183 12.725 1.601 18.191z" fill="#ffdd40"/></g><path d="m260.009 37.591c-5.465-4.581-13.61-3.865-18.191 1.601-4.581 5.465-3.865 13.61 1.601 18.191l48.784 40.893c1.368-.443 2.44-1.663 2.528-3.249.516-9.268 8.719-11.804 13.576-12.491 1.273-.18 2.299-1.011 2.797-2.115z" fill="#ffb332"/><g><path d="m401.54 105.166c-6.183 7.376-17.175 8.344-24.551 2.16l-91.314-76.543c-7.376-6.183-8.343-17.175-2.16-24.551 6.183-7.376 17.175-8.344 24.551-2.16l91.313 76.544c7.377 6.183 8.344 17.174 2.161 24.55z" fill="#4f71b6"/></g><path d="m308.066 4.072c-7.376-6.183-18.368-5.216-24.551 2.16s-5.216 18.368 2.16 24.551l38.698 32.438c.512-.701.782-1.584.709-2.504-1.525-19.395 13.66-22.599 20.114-23.089.74-.056 1.411-.347 1.961-.788z" fill="#3c58a0"/><g><path d="m277.456 269.979c4.581-5.466 3.865-13.61-1.601-18.191l-114.759-96.197c-5.465-4.581-13.61-3.865-18.191 1.601-4.581 5.465-3.865 13.61 1.601 18.191l114.759 96.197c5.465 4.582 13.609 3.865 18.191-1.601z" fill="#ffdd40"/></g><path d="m161.096 155.591c-5.465-4.581-13.61-3.865-18.191 1.601-4.581 5.465-3.865 13.61 1.601 18.191l48.314 40.499c.554-.712.846-1.63.751-2.591-1.146-11.653 6.284-14.775 11.908-15.495 1.479-.189 2.58-1.215 2.997-2.489z" fill="#ffb332"/><g><path d="m235.758 302.938c6.183-7.376 5.216-18.368-2.16-24.551l-91.314-76.543c-7.376-6.183-18.368-5.216-24.551 2.16s-5.216 18.368 2.16 24.551l91.314 76.543c7.377 6.184 18.368 5.217 24.551-2.16z" fill="#4f71b6"/></g><path d="m142.285 201.844c-7.376-6.183-18.368-5.216-24.551 2.16s-5.216 18.367 2.16 24.551l37.229 31.207c.301-.6.446-1.279.371-1.978-1.942-18.103 12.075-22.486 19.137-23.546 1.037-.156 1.905-.74 2.462-1.54z" fill="#3c58a0"/><path d="m357.865 333.477h-270.217c-24.374 0-44.317 19.943-44.317 44.317v10.928c12.213 21.291 27.54 40.563 45.345 57.219h313.505v-68.148c.001-24.373-19.942-44.316-44.316-44.316z" fill="#4f71b6"/><path d="m180.138 444.029c-11.25-4.536-11.25-17.464-11.25-17.464s0-33.75 0-60.75 22.5-32.338 22.5-32.338h-103.74c-24.374 0-44.317 19.943-44.317 44.317v10.928c12.213 21.291 27.54 40.563 45.345 57.219h89.698c1.009-1.211 1.764-1.912 1.764-1.912z" fill="#3c58a0"/><path d="m416.078 452.474c-1.82-4.926-6.544-8.445-12.103-8.445h-317.338c9.892 9.466 20.576 18.111 31.943 25.826h274.84c7.894-5.358 15.459-11.163 22.658-17.381z" fill="#ffdd40"/><path d="m180.138 444.029h-93.501c9.892 9.466 20.576 18.111 31.943 25.826h61.558c-15.5-11.46 0-25.826 0-25.826z" fill="#ffb332"/><path d="m295.479 226.628 11.979 10.042c4.639 3.889 11.616 3.275 15.504-1.364l27.023-32.237c3.889-4.639 3.275-11.616-1.364-15.504l-11.979-10.042z" fill="#ffdd40"/><path d="m450.776 271.815c-6.301-5.282-15.69-4.455-20.971 1.845l-23.394 27.909c-5.282 6.301-4.456 15.69 1.845 20.971 6.301 5.282 15.69 4.456 20.971-1.845l23.394-27.909c5.281-6.3 4.455-15.689-1.845-20.971z" fill="#ffdd40"/><path d="m427.513 299.115c-4.87-4.082-6.768-10.383-5.478-16.186l-15.625 18.64c-5.282 6.301-4.456 15.69 1.845 20.971 6.301 5.282 15.69 4.456 20.971-1.845l16.408-19.574c-5.714 2.952-12.883 2.385-18.121-2.006z" fill="#ffb332"/><path d="m337.375 178.136c-23.482 4.786-40.551 25.149-41.163 49.106l22.001-23.269z" fill="#ffdd40"/></g></svg>