<svg id="color" height="512" viewBox="0 0 24 24" width="512" xmlns="http://www.w3.org/2000/svg"><circle cx="18.5" cy="22.5" fill="#90a4ae" r="1.5"/><path d="m21.251 18.5h-15c-.414 0-.75-.336-.75-.75s.336-.75.75-.75h1.499 13.5c.354 0 .661-.249.734-.596l2-9.5c.046-.221-.009-.451-.151-.627-.143-.175-.356-.277-.583-.277h-16.891l-.38-1.806c-.266-1.259-1.392-2.177-2.679-2.183l-2.546-.011h-.004c-.412 0-.748.334-.75.747-.001.414.333.751.747.753l2.546.011c.585.002 1.097.42 1.218.992l.505 2.4 1.81 8.596h-.576c-1.241 0-2.25 1.009-2.25 2.25s1.009 2.25 2.25 2.25h15c.414 0 .75-.336.75-.75 0-.413-.335-.749-.749-.749z" fill="#cfd8dc"/><path d="m.754 2h-.004c-.412 0-.748.334-.75.747-.001.414.333.751.747.753l2.546.011c.585.002 1.097.42 1.218.992l.505 2.4 1.81 8.596h-.576c-1.241 0-2.25 1.009-2.25 2.25s1.009 2.25 2.25 2.25h7.75v-1.5h-7.75c-.414 0-.75-.336-.75-.75s.336-.75.75-.75h1.499.001 6.25v-10.999h-7.641l-.38-1.806c-.266-1.259-1.392-2.177-2.679-2.183z" fill="#b4bcc0"/><path d="m10.5 21c-.828 0-1.5.671-1.5 1.5s.671 1.5 1.5 1.5 1.5-.671 1.5-1.5-.671-1.5-1.5-1.5z" fill="#90a4ae"/><path d="m10.5 21c-.828 0-1.5.671-1.5 1.5s.671 1.5 1.5 1.5z" fill="#7d8f97"/><path d="m18.501 21c-.829 0-1.5.671-1.5 1.5s.671 1.5 1.5 1.5z" fill="#7d8f97"/><path d="m17.053 11.852c-.62-.461-6.053-4.602-6.053-8.114 0-2.061 1.683-3.738 3.75-3.738 1.064 0 2.054.446 2.75 1.194.696-.748 1.686-1.194 2.75-1.194 2.067 0 3.75 1.677 3.75 3.738 0 3.512-5.433 7.653-6.053 8.114-.265.197-.629.197-.894 0z" fill="#f44336"/><path d="m14.75 0c-2.067 0-3.75 1.677-3.75 3.738 0 3.512 5.433 7.653 6.053 8.114.133.099.29.148.447.148v-10.806c-.696-.748-1.687-1.194-2.75-1.194z" fill="#d43a2f"/></svg>